<svg xmlns="http://www.w3.org/2000/svg" viewBox="0 0 820 460" font-family="'Segoe UI',system-ui,sans-serif">
  <defs>
    <marker id="a" markerWidth="8" markerHeight="6" refX="8" refY="3" orient="auto">
      <polygon points="0 0, 8 3, 0 6" fill="#64748b"/>
    </marker>
    <marker id="ag" markerWidth="8" markerHeight="6" refX="8" refY="3" orient="auto">
      <polygon points="0 0, 8 3, 0 6" fill="#10B981"/>
    </marker>
    <marker id="ab" markerWidth="8" markerHeight="6" refX="8" refY="3" orient="auto">
      <polygon points="0 0, 8 3, 0 6" fill="#0ea5e9"/>
    </marker>
    <marker id="ap" markerWidth="8" markerHeight="6" refX="8" refY="3" orient="auto">
      <polygon points="0 0, 8 3, 0 6" fill="#8b5cf6"/>
    </marker>
    <marker id="apk" markerWidth="8" markerHeight="6" refX="8" refY="3" orient="auto">
      <polygon points="0 0, 8 3, 0 6" fill="#ec4899"/>
    </marker>
  </defs>

  <!-- Background -->
  <rect width="820" height="460" fill="#f8fafc" rx="12"/>

  <!-- Title -->
  <text x="410" y="36" text-anchor="middle" font-size="20" font-weight="700" fill="#0f172a">Arquitectura del Sistema</text>
  <text x="410" y="56" text-anchor="middle" font-size="13" fill="#64748b">TenK Skill para OpenClaw</text>

  <!-- Usuario (top center) -->
  <ellipse cx="410" cy="95" rx="60" ry="26" fill="#f9fafb" stroke="#9ca3af" stroke-width="1.8"/>
  <text x="410" y="91" text-anchor="middle" font-size="13" font-weight="600" fill="#111827">Usuario</text>
  <text x="410" y="108" text-anchor="middle" font-size="10" fill="#6b7280">desarrollador</text>

  <!-- Arrow User → OpenClaw -->
  <line x1="355" y1="106" x2="238" y2="158" stroke="#10B981" stroke-width="1.6" marker-end="url(#ag)" stroke-dasharray="4,3"/>

  <!-- Arrow User → Flutter -->
  <line x1="465" y1="106" x2="583" y2="158" stroke="#8b5cf6" stroke-width="1.6" marker-end="url(#ap)" stroke-dasharray="4,3"/>

  <!-- OpenClaw Agent (left) -->
  <rect x="60" y="168" width="200" height="70" rx="8" fill="#ecfdf5" stroke="#10B981" stroke-width="2"/>
  <text x="160" y="190" text-anchor="middle" font-size="13" font-weight="700" fill="#065f46">OpenClaw Agent</text>
  <text x="160" y="208" text-anchor="middle" font-size="11" fill="#374151">tenk.sh CLI</text>
  <text x="160" y="226" text-anchor="middle" font-size="10" fill="#6b7280">~/.config/tenk-connect/token</text>

  <!-- ClaHub badge -->
  <rect x="298" y="175" width="130" height="44" rx="6" fill="#fdf2f8" stroke="#ec4899" stroke-width="1.8"/>
  <text x="363" y="195" text-anchor="middle" font-size="12" font-weight="700" fill="#831843">ClaHub Skill</text>
  <text x="363" y="211" text-anchor="middle" font-size="10" fill="#9d174d">clawhub.com</text>

  <!-- Arrow ClaHub → OpenClaw -->
  <line x1="298" y1="197" x2="263" y2="197" stroke="#ec4899" stroke-width="1.6" marker-end="url(#apk)"/>
  <text x="280" y="191" text-anchor="middle" font-size="9" fill="#be185d">instala</text>

  <!-- Flutter Web (right) -->
  <rect x="560" y="168" width="200" height="70" rx="8" fill="#f5f3ff" stroke="#8b5cf6" stroke-width="2"/>
  <text x="660" y="190" text-anchor="middle" font-size="13" font-weight="700" fill="#4c1d95">Flutter Web</text>
  <text x="660" y="208" text-anchor="middle" font-size="11" fill="#374151">tenk.oventlabs.com</text>
  <text x="660" y="226" text-anchor="middle" font-size="10" fill="#6b7280">/authorize/:code</text>

  <!-- Arrow OpenClaw → API -->
  <line x1="160" y1="238" x2="340" y2="308" stroke="#10B981" stroke-width="1.8" marker-end="url(#ag)"/>
  <text x="220" y="278" font-size="10" fill="#059669" transform="rotate(-28,220,278)">GET /skills · POST /sessions</text>

  <!-- Arrow Flutter → API -->
  <line x1="660" y1="238" x2="490" y2="308" stroke="#8b5cf6" stroke-width="1.8" marker-end="url(#ap)"/>
  <text x="590" y="278" font-size="10" fill="#7c3aed" transform="rotate(28,590,278)">POST /authorize/:code</text>

  <!-- TenK API (center) -->
  <rect x="280" y="315" width="260" height="70" rx="8" fill="#f0f9ff" stroke="#0ea5e9" stroke-width="2"/>
  <text x="410" y="338" text-anchor="middle" font-size="14" font-weight="700" fill="#0c4a6e">Hono API (Bun)</text>
  <text x="410" y="357" text-anchor="middle" font-size="11" fill="#374151">device-auth module</text>
  <text x="410" y="374" text-anchor="middle" font-size="10" fill="#6b7280">POST /code  ·  GET /status  ·  POST /authorize</text>

  <!-- Arrow API → Postgres -->
  <line x1="410" y1="385" x2="410" y2="418" stroke="#0ea5e9" stroke-width="1.8" marker-end="url(#ab)"/>
  <text x="415" y="407" font-size="10" fill="#0369a1">Prisma ORM</text>

  <!-- PostgreSQL -->
  <rect x="280" y="424" width="260" height="52" rx="8" fill="#fffbeb" stroke="#f59e0b" stroke-width="2"/>
  <text x="410" y="446" text-anchor="middle" font-size="13" font-weight="700" fill="#78350f">PostgreSQL</text>
  <text x="410" y="464" text-anchor="middle" font-size="11" fill="#6b7280">device_codes · users · skills · sessions</text>
</svg>